<svg id="outline" xmlns="http://www.w3.org/2000/svg" viewBox="0 0 16 16"><defs><style>.cls-1{fill:#0069a5;}</style></defs><title>icon-external-link-xs</title><path class="cls-1" d="M11.5,9.5a.5.5,0,0,0-.5.5v2H4V5H6A.5.5,0,0,0,6,4H3.5a.5.5,0,0,0-.5.5v8a.5.5,0,0,0,.5.5h8a.5.5,0,0,0,.5-.5V10A.5.5,0,0,0,11.5,9.5Z"/><path class="cls-1" d="M13,3.31A.51.51,0,0,0,12.69,3a.41.41,0,0,0-.19,0h-4a.5.5,0,0,0,0,1h2.79L7.69,7.61a.51.51,0,0,0,0,.71.52.52,0,0,0,.71,0L12,4.71V7.5a.5.5,0,0,0,1,0v-4h0A.41.41,0,0,0,13,3.31Z"/></svg>