<svg id="outline" xmlns="http://www.w3.org/2000/svg" viewBox="0 0 28 28"><defs><style>.cls-1{fill:#2d3741;}.cls-2{fill:#fff;}</style></defs><circle class="cls-1" cx="14" cy="14" r="14"/><path class="cls-2" d="M14.6,17.75h0A.75.75,0,0,1,14,17.4l-3-4.8a.75.75,0,1,1,1.28-.8l2.42,3.87L19.4,9.35a.75.75,0,0,1,1.2.9l-5.4,7.2A.75.75,0,0,1,14.6,17.75Z"/><path class="cls-2" d="M20,20.75H8A.76.76,0,0,1,7.25,20V8A.76.76,0,0,1,8,7.25h9.6a.75.75,0,0,1,0,1.5H8.75v10.5h10.5V15.2a.75.75,0,0,1,1.5,0V20A.76.76,0,0,1,20,20.75Z"/></svg>