<svg id="outline" xmlns="http://www.w3.org/2000/svg" viewBox="0 0 16 16"><defs><style>.cls-1{fill:#2d3741;}</style></defs><path class="cls-1" d="M8,.75A7.25,7.25,0,1,0,15.25,8,7.26,7.26,0,0,0,8,.75Zm4.74,4H11.47A8.27,8.27,0,0,0,10.84,3,5.76,5.76,0,0,1,12.74,4.75Zm1,3.25a5.93,5.93,0,0,1-.27,1.75H11.75A14,14,0,0,0,11.86,8a14,14,0,0,0-.11-1.75h1.73A5.93,5.93,0,0,1,13.75,8ZM8,13.75c-.7,0-1.45-1-1.91-2.5H9.91C9.45,12.78,8.7,13.75,8,13.75Zm-2.24-4A12.13,12.13,0,0,1,5.64,8a12.13,12.13,0,0,1,.12-1.75h4.48A13.75,13.75,0,0,1,10.36,8a13.75,13.75,0,0,1-.12,1.75ZM2.25,8a5.93,5.93,0,0,1,.27-1.75H4.25a14,14,0,0,0,0,3.5H2.52A5.93,5.93,0,0,1,2.25,8ZM8,2.25c.7,0,1.45,1,1.91,2.5H6.09C6.55,3.22,7.3,2.25,8,2.25ZM5.16,3a8.27,8.27,0,0,0-.63,1.74H3.26A5.76,5.76,0,0,1,5.16,3Zm-1.9,8.24H4.53A8.27,8.27,0,0,0,5.16,13,5.76,5.76,0,0,1,3.26,11.25ZM10.84,13a8.27,8.27,0,0,0,.63-1.74h1.27A5.76,5.76,0,0,1,10.84,13Z"/></svg>