<svg id="outline" xmlns="http://www.w3.org/2000/svg" viewBox="0 0 28 28"><defs><style>.cls-1{fill:#2d3741;}.cls-2{fill:#fff;}</style></defs><circle class="cls-1" cx="14" cy="14" r="14"/><path class="cls-2" d="M21.19,11.72a.57.57,0,0,0-.08-.13.41.41,0,0,0-.07-.11l-3.86-4h0a.81.81,0,0,0-.24-.17h0l-.11,0a.58.58,0,0,0-.18,0H11.5a.76.76,0,0,0-.75.75v2.33a4.73,4.73,0,0,0,0,9.34V20a.76.76,0,0,0,.75.75h9a.76.76,0,0,0,.75-.75V12A.67.67,0,0,0,21.19,11.72Zm-3.8-1.86,1.34,1.39H17.39ZM8.25,15a3.25,3.25,0,1,1,3.25,3.25A3.26,3.26,0,0,1,8.25,15Zm11.5,4.25H13.58a4.72,4.72,0,0,0-1.33-8.92V8.75h3.64V12a.76.76,0,0,0,.75.75h3.11Z"/><path class="cls-2" d="M13,15.75a.75.75,0,0,0,0-1.5h-.75V13a.75.75,0,0,0-1.5,0v2a.76.76,0,0,0,.75.75Z"/></svg>