<svg id="outline" xmlns="http://www.w3.org/2000/svg" viewBox="0 0 16 16"><defs><style>.cls-1{fill:#2d3741;}</style></defs><path class="cls-1" d="M15.19,5.72a.57.57,0,0,0-.08-.13A.41.41,0,0,0,15,5.48l-3.86-4h0A.85.85,0,0,0,11,1.34l-.05,0h-.07a.54.54,0,0,0-.22-.05H5.5A.76.76,0,0,0,4.75,2V4.33a4.73,4.73,0,0,0,0,9.34V14a.76.76,0,0,0,.75.75h9a.76.76,0,0,0,.75-.75V6A.67.67,0,0,0,15.19,5.72Zm-3.8-1.86,1.34,1.39H11.39ZM2.25,9A3.25,3.25,0,1,1,5.5,12.25,3.26,3.26,0,0,1,2.25,9Zm11.5,4.25H7.58A4.72,4.72,0,0,0,6.25,4.33V2.75H9.89V6a.76.76,0,0,0,.75.75h3.11Z"/><path class="cls-1" d="M7,9.75a.75.75,0,0,0,0-1.5H6.25V7a.75.75,0,0,0-1.5,0V9a.76.76,0,0,0,.75.75Z"/></svg>