<svg id="outline" xmlns="http://www.w3.org/2000/svg" viewBox="0 0 28 28"><defs><style>.cls-1{fill:#2d3741;}.cls-2{fill:#fff;}</style></defs><circle class="cls-1" cx="14" cy="14" r="14"/><path class="cls-2" d="M14,5.5A8.5,8.5,0,1,0,22.5,14,8.51,8.51,0,0,0,14,5.5Zm5.88,4.72H18a10,10,0,0,0-1-2.51A6.94,6.94,0,0,1,19.88,10.22ZM21,14a6.87,6.87,0,0,1-.39,2.28H18.3a16.33,16.33,0,0,0,0-4.56h2.31A6.87,6.87,0,0,1,21,14Zm-7,7c-.91,0-1.89-1.23-2.46-3.22h4.92C15.89,19.77,14.91,21,14,21Zm-2.79-4.72a15.37,15.37,0,0,1,0-4.56h5.58a15.37,15.37,0,0,1,0,4.56ZM7,14a6.87,6.87,0,0,1,.39-2.28H9.7a16.32,16.32,0,0,0,0,4.56H7.39A6.87,6.87,0,0,1,7,14Zm7-7c.91,0,1.89,1.23,2.46,3.22H11.54C12.11,8.23,13.09,7,14,7ZM11,7.71a10,10,0,0,0-1,2.51H8.12A6.94,6.94,0,0,1,11,7.71ZM8.12,17.78H10a10,10,0,0,0,1,2.51A6.94,6.94,0,0,1,8.12,17.78Zm8.93,2.51a10,10,0,0,0,1-2.51h1.86A6.94,6.94,0,0,1,17.05,20.29Z"/></svg>